<?xml version="1.0" standalone="no"?>
<!DOCTYPE svg PUBLIC "-//W3C//DTD SVG 20010904//EN"
 "http://www.w3.org/TR/2001/REC-SVG-20010904/DTD/svg10.dtd">
<svg version="1.0" xmlns="http://www.w3.org/2000/svg"
 width="596.000000pt" height="596.000000pt" viewBox="0 0 596.000000 596.000000"
 preserveAspectRatio="xMidYMid meet">
<metadata>
Created by potrace 1.11, written by Peter Selinger 2001-2013
</metadata>
<g transform="translate(0.000000,596.000000) scale(0.100000,-0.100000)"
fill="#000000" stroke="none">
<path d="M2705 5947 c-83 -28 -147 -82 -200 -172 -30 -50 -73 -177 -80 -236
-3 -24 -7 -60 -10 -79 -3 -19 -7 -73 -11 -120 -3 -47 -7 -103 -9 -125 -2 -22
-6 -74 -9 -115 -6 -90 -16 -212 -22 -260 -2 -19 -6 -64 -9 -100 -3 -36 -7 -81
-10 -100 -2 -19 -7 -53 -9 -75 -14 -111 -17 -132 -21 -155 -12 -57 -15 -76
-20 -110 -3 -20 -8 -47 -10 -60 -3 -14 -7 -37 -10 -52 -3 -16 -12 -58 -21 -95
-9 -38 -17 -75 -19 -83 -6 -29 -46 -185 -51 -200 -3 -8 -6 -17 -6 -20 0 -3
-27 -83 -60 -177 -52 -151 -80 -223 -189 -483 -13 -30 -27 -56 -31 -58 -4 -2
-8 -10 -8 -17 0 -13 -95 -203 -140 -280 -13 -22 -28 -49 -34 -60 -6 -11 -19
-31 -27 -45 -9 -14 -54 -88 -99 -165 -46 -77 -103 -170 -127 -207 -23 -37 -43
-69 -43 -72 0 -2 -23 -39 -50 -80 -28 -42 -50 -78 -50 -81 0 -3 -5 -11 -10
-18 -6 -7 -63 -91 -127 -187 -64 -96 -120 -176 -124 -178 -5 -2 -9 -9 -9 -16
0 -7 -8 -21 -18 -32 -10 -10 -33 -41 -52 -69 -55 -81 -243 -330 -252 -333 -4
-2 -8 -8 -8 -13 0 -5 -8 -17 -17 -27 -10 -10 -27 -31 -38 -46 -11 -16 -27 -36
-36 -45 -37 -39 -192 -243 -224 -296 -64 -106 -83 -172 -91 -320 -6 -86 -5
-91 19 -117 38 -41 123 -62 221 -55 45 3 92 8 106 11 14 3 41 9 60 13 19 4 37
8 40 8 89 20 267 97 348 152 57 39 200 176 311 299 161 178 454 566 591 784
19 30 38 57 42 58 5 2 8 8 8 14 0 5 14 29 30 53 17 24 30 47 30 51 0 4 6 15
14 23 22 24 153 251 256 441 57 106 230 456 230 465 0 3 17 42 39 88 21 45 55
123 76 172 20 50 43 104 50 120 11 26 34 91 42 120 15 55 95 371 108 428 2 9
20 88 40 175 19 86 38 168 42 182 3 14 7 30 9 35 1 6 5 26 9 45 3 19 10 53 15
75 5 22 11 54 14 70 3 17 8 41 11 55 3 14 8 36 11 50 2 14 7 36 9 50 9 42 13
66 19 101 3 19 8 44 10 55 5 22 13 74 22 134 3 19 7 46 10 60 4 27 14 98 19
140 2 14 6 52 10 85 21 168 27 261 28 415 1 167 -5 260 -16 260 -4 0 -5 4 -2
10 9 14 -24 137 -48 179 -40 68 -92 105 -211 148 -57 20 -182 25 -231 10z"/>
<path d="M5125 5813 c-54 -10 -66 -15 -94 -45 -28 -30 -53 -93 -67 -168 -3
-19 -7 -174 -8 -345 -2 -170 -5 -323 -9 -340 -3 -16 -9 -46 -11 -65 -30 -196
-126 -357 -271 -455 -38 -26 -144 -83 -235 -127 -230 -112 -427 -211 -480
-242 -25 -14 -52 -29 -60 -33 -8 -3 -34 -19 -57 -35 -23 -15 -44 -28 -48 -28
-14 0 -195 -143 -250 -197 -71 -71 -91 -94 -131 -153 -77 -113 -124 -243 -117
-323 10 -108 108 -209 198 -201 17 1 30 3 30 4 0 1 16 3 35 6 116 14 343 117
630 286 52 31 111 65 130 76 19 11 82 46 140 79 207 118 360 198 373 195 4 -1
7 2 7 8 0 5 5 10 11 10 23 0 191 103 276 169 151 117 307 304 386 466 22 44
77 244 92 330 3 17 7 39 9 50 29 145 48 549 32 670 -25 183 -130 353 -231 375
-5 1 -18 6 -28 12 -10 5 -28 12 -40 14 -28 7 -186 11 -212 7z"/>
<path d="M4364 2804 c-125 -61 -184 -113 -228 -199 -39 -79 -62 -177 -52 -229
9 -46 72 -125 143 -178 32 -24 60 -46 61 -50 2 -5 7 -8 12 -8 7 0 113 -62 190
-110 8 -5 28 -17 45 -26 82 -46 195 -127 212 -151 75 -111 66 -218 -31 -373
-22 -36 -43 -67 -46 -70 -4 -3 -11 -12 -16 -21 -15 -26 -151 -194 -194 -239
-8 -9 -46 -51 -85 -94 -38 -43 -81 -91 -95 -106 -64 -69 -170 -189 -201 -225
-19 -22 -36 -42 -39 -45 -3 -3 -25 -32 -50 -65 -25 -33 -47 -62 -50 -65 -32
-31 -120 -195 -120 -222 0 -10 -4 -18 -9 -18 -16 0 -43 -107 -37 -155 11 -99
74 -150 185 -149 108 0 176 19 326 88 97 45 279 146 283 158 2 4 8 8 14 8 9 0
141 95 178 127 8 8 29 25 45 40 113 98 315 317 315 342 0 6 4 11 9 11 9 0 109
149 163 245 171 302 252 625 224 890 -30 281 -159 461 -488 684 -101 68 -289
167 -383 201 -11 4 -33 13 -48 19 -15 6 -51 14 -80 17 -29 4 -54 8 -57 9 -3 2
-46 -16 -96 -41z"/>
</g>
</svg>
