<?xml version="1.0" encoding="UTF-8"?>
<svg width="16px" height="16px" viewBox="0 0 16 16" version="1.1" xmlns="http://www.w3.org/2000/svg" xmlns:xlink="http://www.w3.org/1999/xlink">
    <!-- Generator: Sketch 41.2 (35397) - http://www.bohemiancoding.com/sketch -->
    <title>K</title>
    <desc>Created with Sketch.</desc>
    <defs></defs>
    <g id="Page-1" stroke="none" stroke-width="1" fill="none" fill-rule="evenodd">
        <g id="Klubben" fill="#000000">
            <path d="M14.8999608,9.56126016 C14.2220779,8.97152607 12.9833281,8.36177764 12.4125637,8.36177764 C11.8044365,8.59867573 11.3927585,8.77003455 11.2900206,9.53702532 C11.2900206,10.1969055 13.3576929,10.7699987 13.3576929,11.1387221 C14.0642911,11.9577436 10.8102384,14.0512926 10.5071705,15.1409818 C10.2372898,15.4208579 10.1299458,16.7347205 12.6018991,15.4208579 C15.0738525,14.1069953 16.5918949,10.9419043 14.8999608,9.56126016 Z M13.2790421,4.03913603 C13.0335713,4.30554472 11.9830109,4.676532 11.0392132,5.1224076 C9.87178235,5.67393348 9.30273879,6.20805348 9.04678819,6.73930174 C8.79779284,7.21468282 8.90273387,7.60688024 9.38952366,7.8007786 C10.4526505,7.8007786 11.7607785,6.80705836 13.5879849,6.01890322 C14.2101941,5.73975235 15.0130422,5.28005165 15.601612,4.24487799 C15.9685145,3.21644601 15.9766701,2.42995981 15.9766701,1.68673517 C15.9766701,1.40873887 15.8256796,0.772587095 15.4068069,0.530141541 C15.0049164,0.356516421 14.7360542,0.358877477 14.2779295,0.415409834 C13.4319479,0.828199291 14.5167448,3.0057927 13.2790421,4.03913603 Z M4.46129172,8.32612207 C0.803878589,14.0265004 2.15025667e-14,13.3031075 2.128967e-15,14.8969415 C0.180172978,15.524868 2.3511056,14.9419227 2.75758496,14.3780026 C3.21560566,14.0421793 5.758525,11.5761723 7.50652635,7.56166107 C8.56725771,3.99225388 9.17156243,0.702200521 8.27007029,0.225351121 C7.43548986,-0.21837442 6.52136881,-0.0704517954 6.3156684,1.24607574 C6.07859949,3.56124685 6.16796719,5.29339847 4.46129172,8.32612207 Z" id="K"></path>
        </g>
    </g>
</svg>